PathFileType	4	(X/Y/Z)	 s06c0301.trc
DataRate	CameraRate	NumFrames	NumMarkers	Units	OrigDataRate	OrigDataStartFrame	OrigNumFrames
200	200	6	48	mm	200	1501	2000
Frame#	Time	racr			lacr			c7			jug			rlel			rdr			llel			ldr			s2			lic			ric			lasi			rasi			rpsi			lpsi			rgt			lgt			rth1			rth2			rth3			rth4			rlfc			rmfc			rsh1			rsh2			rsh3			rsh4			rlmal			rcal			rtoe			rmt5			lth1			lth2			lth4			lth3			llfc			lmfc			llmal			lcal			lmt5			lsh1			lsh2			lsh3			lsh4			ltoe			SBIKE			LBIKE			RBIKE			
		X1	Y1	Z1	X2	Y2	Z2	X3	Y3	Z3	X4	Y4	Z4	X5	Y5	Z5	X6	Y6	Z6	X7	Y7	Z7	X8	Y8	Z8	X9	Y9	Z9	X10	Y10	Z10	X11	Y11	Z11	X12	Y12	Z12	X13	Y13	Z13	X14	Y14	Z14	X15	Y15	Z15	X16	Y16	Z16	X17	Y17	Z17	X18	Y18	Z18	X19	Y19	Z19	X20	Y20	Z20	X21	Y21	Z21	X22	Y22	Z22	X23	Y23	Z23	X24	Y24	Z24	X25	Y25	Z25	X26	Y26	Z26	X27	Y27	Z27	X28	Y28	Z28	X29	Y29	Z29	X30	Y30	Z30	X31	Y31	Z31	X32	Y32	Z32	X33	Y33	Z33	X34	Y34	Z34	X35	Y35	Z35	X36	Y36	Z36	X37	Y37	Z37	X38	Y38	Z38	X39	Y39	Z39	X40	Y40	Z40	X41	Y41	Z41	X42	Y42	Z42	X43	Y43	Z43	X44	Y44	Z44	X45	Y45	Z45	X46	Y46	Z46	X47	Y47	Z47	X48	Y48	Z48	
1501	7.5050	564.038999	1319.063286	-79.840169	581.563237	1304.983464	-393.978428	564.168586	1394.962445	-241.080059	554.389298	1219.633082	-224.861332	545.643415	1080.916145	50.278298	710.708755	928.624262	-45.809452	535.053415	1057.731793	-498.685869	706.896627	927.191170	-402.775802	11.864180	1199.279295	-237.513023	195.888714	1116.809819	-399.196124	150.800083	1180.593887	-67.919541	196.998942	1054.955505	-363.243391	169.794037	1121.518840	-85.463237	51.387873	1236.141248	-221.883665	50.579324	1220.440861	-280.996305	125.704379	1143.071857	-32.851458	134.438972	1047.521290	-421.783307	226.483067	1081.011666	-26.436693	313.966272	1055.388794	-27.619363	374.598411	993.906211	-20.637764	328.457859	1080.877331	-51.983256	439.551903	909.438075	-41.466202	433.583522	882.288425	-156.656290	384.199301	796.403582	-19.041859	354.687315	716.220781	-39.868204	291.977477	656.396735	-40.683220	375.261799	707.419465	-73.256759	236.233882	585.521140	-45.779644	166.868783	573.615831	-94.615079	419.442146	461.806913	-101.091818	323.717539	476.761974	-28.667657	146.590359	922.213883	-443.745676	195.817870	850.020490	-439.858019	230.200561	862.310711	-432.751860	201.611445	761.463108	-430.732306	220.195804	651.854043	-406.574519	231.385750	636.979084	-291.025814	104.273775	309.413426	-372.782350	46.000776	331.963282	-321.599656	155.109097	169.682350	-401.413218	184.443743	550.497424	-420.408017	181.726316	466.040533	-400.867503	135.235322	391.002995	-388.856395	211.890341	462.323693	-375.930963	222.459249	112.355948	-345.147292	-203.124893	869.700595	-206.456418	-49.299549	84.237284	-413.763340	-48.802216	80.318193	-16.385395	
1502	7.5100	562.289475	1320.062320	-80.390703	580.233719	1305.544460	-393.811835	562.455359	1396.279307	-241.462390	552.842861	1220.836018	-225.160619	544.970837	1081.730669	49.419530	710.584883	929.087247	-46.001621	535.032541	1058.151861	-498.239248	706.974545	927.169605	-402.623373	10.430950	1200.964528	-237.471065	193.625377	1117.961555	-399.147429	149.345414	1181.963205	-68.046949	194.790790	1056.253864	-363.389108	168.345416	1122.914097	-85.746424	49.800458	1237.725950	-221.622175	48.916510	1222.005725	-280.968130	123.798096	1144.149236	-33.146162	132.786779	1049.482969	-422.696770	223.962719	1080.377361	-26.237959	311.210695	1054.032388	-27.545970	371.283918	991.882560	-20.865032	325.905405	1079.361172	-51.829363	436.057377	906.543542	-41.420100	430.010117	879.360375	-156.265773	382.835782	792.075453	-18.560140	355.459097	711.063443	-39.415168	294.416075	649.640100	-40.297865	376.415729	702.919696	-72.651850	240.797885	577.346063	-45.412419	171.723528	563.666317	-94.219459	427.147413	458.517870	-101.134243	331.073114	470.753866	-28.504621	146.740117	924.423064	-443.850772	197.414431	853.271354	-439.904161	231.526792	866.161790	-432.222444	204.888642	764.759208	-431.238069	223.286131	655.071138	-406.287461	234.200837	640.045875	-290.904403	98.905318	315.647947	-372.679034	40.826584	339.189497	-321.501386	147.092053	175.103677	-401.250062	185.617842	554.462261	-420.529473	180.630717	470.289107	-400.504676	132.314580	396.343422	-388.865331	210.412222	465.912896	-375.322056	213.424777	116.553377	-345.014758	-203.116436	869.721500	-206.375534	-49.292261	84.276486	-413.784104	-48.795205	80.309818	-16.366699	
1503	7.5150	560.525508	1321.027748	-80.867343	578.972742	1306.017495	-393.807707	560.690431	1397.523130	-241.907780	551.402648	1221.965044	-225.432068	544.337704	1082.670130	48.642850	710.384613	929.653797	-46.187622	535.051324	1058.543743	-497.792892	707.066297	927.161984	-402.528581	8.941778	1202.539917	-237.446869	191.325838	1119.158047	-399.417456	147.956127	1182.929541	-67.981061	192.662407	1057.544620	-363.542331	166.503186	1123.707446	-85.658081	48.289331	1239.101250	-221.288424	47.300225	1223.494205	-280.964617	121.899070	1145.102251	-32.900793	131.148923	1051.279785	-423.111752	221.266293	1078.811771	-26.435194	308.526040	1051.925431	-27.391834	367.480970	989.161497	-20.203362	323.366631	1076.896204	-52.019724	432.317162	902.881327	-41.119919	426.254578	875.780545	-155.813082	381.250091	787.120405	-18.089124	356.104621	705.292242	-38.848103	296.722469	642.360808	-39.909082	377.409543	697.722243	-72.114997	245.234799	568.525100	-45.065507	176.483900	553.411894	-93.833831	434.432903	454.714910	-101.272090	338.184823	464.396711	-28.386237	147.298222	926.872217	-443.877050	199.334158	856.742628	-439.716670	233.090879	870.225772	-431.493235	208.463368	768.343811	-431.527675	226.583352	658.406804	-405.842929	237.516034	643.258409	-290.669758	93.797722	322.085176	-372.610244	35.836645	346.643698	-321.464422	139.435896	180.959932	-401.102400	187.204409	558.556177	-420.805068	179.795348	474.740410	-400.071417	129.626536	401.945731	-388.802915	209.133651	469.736573	-374.596450	204.895171	121.357470	-344.826966	-203.118350	869.718320	-206.326109	-49.299123	84.259938	-413.750758	-48.788075	80.311768	-16.380014	
1504	7.5200	558.809830	1322.005391	-81.542129	577.587833	1306.519354	-393.656601	558.846602	1398.722358	-242.378809	549.984190	1223.042329	-225.746750	543.685202	1083.445192	47.626016	709.874487	930.643450	-46.087382	535.033221	1058.928901	-497.398651	707.137304	927.141335	-402.418593	7.361901	1204.077717	-237.294232	189.151682	1120.309429	-399.672826	146.558960	1183.727552	-67.973624	190.573916	1058.816480	-363.509065	165.298336	1124.633313	-85.948446	46.824714	1240.420434	-221.151234	45.631020	1224.891870	-280.928062	120.014558	1145.316130	-33.103286	129.637072	1053.047576	-423.490903	218.701618	1077.133468	-25.946100	305.451697	1049.286467	-26.785929	363.581963	985.723142	-19.985031	320.807264	1074.263393	-51.461959	428.517281	898.333425	-41.586322	422.538666	871.411561	-155.202435	379.511438	781.484475	-17.451885	356.625708	699.067872	-38.260855	298.906714	634.571310	-39.473172	378.161147	692.045153	-71.445574	249.525311	559.489265	-44.693898	180.844872	543.153475	-93.568036	441.217150	450.189538	-101.327676	344.815980	457.447146	-28.274952	148.116493	929.664352	-443.713675	201.504947	860.535603	-439.378584	234.895050	874.638695	-430.635973	212.167305	772.222433	-431.610303	230.239651	661.894523	-405.165343	240.886221	646.628021	-290.487350	88.728671	328.860842	-372.546513	30.871593	354.311645	-321.453428	132.240307	187.246153	-401.051242	188.861780	562.897677	-420.907339	179.086905	479.322990	-399.567200	127.023367	407.763353	-388.763561	207.916397	473.727906	-373.667759	196.821097	126.768266	-344.741632	-203.135800	869.709297	-206.336030	-49.285347	84.276588	-413.776736	-48.786782	80.310070	-16.355520	
1505	7.5250	557.150211	1322.916679	-82.108496	576.156794	1307.099142	-393.662908	556.934030	1399.819418	-242.894554	548.667513	1224.018849	-226.007221	542.908236	1084.229440	46.758917	709.570322	931.072420	-46.324337	535.071064	1059.343804	-496.890964	707.173664	927.088134	-402.345643	5.811931	1205.399003	-237.132195	186.992351	1121.559180	-400.026584	145.124622	1184.318922	-67.921357	188.636444	1060.114389	-363.519270	163.969191	1125.319766	-86.170532	45.239571	1241.551404	-220.925323	43.891904	1226.143368	-280.867975	117.943798	1145.161622	-33.015140	128.313108	1054.783083	-423.690146	215.862641	1074.756606	-25.233595	302.331560	1045.797530	-26.227914	360.203009	981.629748	-20.154639	318.188941	1070.953067	-50.694381	424.508151	893.240768	-40.906935	418.597715	866.448931	-154.637127	377.634089	775.303390	-16.777178	356.911452	692.325601	-37.712158	300.853470	626.319003	-39.098944	378.961071	685.793043	-70.795588	253.438509	549.964623	-44.524279	185.797341	532.177004	-93.578178	447.467323	445.149151	-101.404483	351.046347	450.162743	-28.261080	149.299416	932.656741	-443.364348	204.013391	864.484344	-438.728528	237.037511	879.270790	-429.670595	216.268190	776.501102	-431.399436	234.045871	665.550283	-404.457656	244.468858	650.306142	-290.259746	83.777450	335.946079	-372.423659	25.890842	362.140645	-321.420780	125.391840	193.947106	-400.968778	190.641412	567.188827	-420.867739	178.479566	484.099971	-399.001225	124.609117	413.831642	-388.613127	206.761531	477.981165	-372.625205	189.373312	132.796447	-344.731795	-203.153851	869.681763	-206.362484	-49.291869	84.234130	-413.763390	-48.788927	80.295621	-16.364348	
1506	7.5300	555.411386	1323.929065	-82.811143	574.675371	1307.643561	-393.394839	554.981223	1400.853114	-243.457331	547.284213	1224.944779	-226.208653	542.375812	1085.026478	45.807973	709.194455	931.550545	-46.600714	535.112235	1059.759246	-496.433635	707.193278	927.005885	-402.318171	4.180467	1206.647544	-236.896823	184.861935	1122.817308	-400.317058	143.836963	1184.498986	-67.692179	186.686148	1061.438888	-363.335350	162.697469	1125.579547	-86.252803	43.678626	1242.611935	-220.749145	42.187139	1227.428091	-280.872340	115.755585	1144.518605	-32.801043	127.255278	1056.635198	-424.032039	213.052675	1071.747040	-24.600766	299.063955	1042.017621	-25.409033	356.297125	976.783100	-19.793310	315.170595	1067.036965	-49.178887	420.177761	887.473673	-40.467581	414.669836	860.675080	-153.677351	375.555499	768.444736	-16.053862	356.925923	684.992601	-37.097529	302.493948	617.613119	-38.723432	379.109167	679.165075	-70.283982	257.040081	540.207474	-44.350662	190.070851	521.038462	-93.401824	453.201459	439.695085	-101.483388	356.485045	442.736400	-28.394509	150.765659	935.988768	-442.839510	206.715249	868.825414	-437.965573	239.362943	884.152877	-428.623471	220.423032	780.988841	-430.877967	237.758129	669.377058	-403.826023	248.085691	654.053350	-290.031820	78.989835	343.314322	-372.266825	20.945504	370.149208	-321.283947	119.045801	201.111736	-400.861692	192.461022	571.502838	-420.618881	177.937871	489.004221	-398.343300	122.243226	420.065285	-388.396929	205.639197	482.413536	-371.509689	182.495770	139.442762	-344.639101	-203.150146	869.642947	-206.436263	-49.300052	84.224670	-413.780327	-48.792194	80.295174	-16.387660	
